<?xml version="1.0" encoding="UTF-8"?>
<!DOCTYPE svg PUBLIC "-//W3C//DTD SVG 1.1//EN" "http://www.w3.org/Graphics/SVG/1.1/DTD/svg11.dtd">
<!-- Creator: CorelDRAW X7 -->
<svg xmlns="http://www.w3.org/2000/svg" xml:space="preserve" width="279.4mm" height="215.9mm" version="1.1" style="shape-rendering:geometricPrecision; text-rendering:geometricPrecision; image-rendering:optimizeQuality; fill-rule:evenodd; clip-rule:evenodd"
viewBox="0 0 27940 21590"
 xmlns:xlink="http://www.w3.org/1999/xlink">
 <defs>
  <style type="text/css">
   <![CDATA[
    .fil0 {fill:white}
    .fil1 {fill:white;fill-rule:nonzero}
   ]]>
  </style>
 </defs>
 <g id="Layer_x0020_1">
  <metadata id="CorelCorpID_0Corel-Layer"/>
  <g id="_2374736144592">
   <path class="fil0" d="M10237 11125l-282 11 -48 2 -4 -48c-13,-197 -10,-756 -6,-1326 4,-692 8,-1400 -16,-1476 -64,-206 -332,-201 -579,-197 -36,1 -72,2 -107,2 -54,0 -109,-2 -164,-5 -238,-9 -488,-18 -593,149 -58,94 -51,1152 -45,1950 3,381 5,703 -1,837l-2 48 -47 0 -289 1 -47 0 -2 -47c-10,-167 -8,-651 -5,-1173 3,-744 6,-1566 -20,-1645 -70,-208 -317,-201 -560,-193 -46,1 -92,3 -138,3 -721,0 -810,47 -809,449 0,62 2,134 4,214 3,108 6,231 6,361 0,173 -1,392 -3,612 -3,451 -6,905 6,1351l1 51 -51 0 -304 2 -50 0 0 -50 4 -2709c-9,-137 -62,-211 -144,-250 -90,-42 -219,-48 -368,-47 -122,0 -229,-2 -324,-4 -364,-7 -537,-11 -608,169 -73,183 -67,548 -57,1244 5,315 10,696 10,1134l0 2642c0,40 -1,109 -3,187 -4,233 -11,546 20,677 11,46 33,84 62,115 36,38 84,65 137,79 53,14 110,16 163,3 47,-11 91,-33 126,-67 118,-112 100,-475 89,-966 -3,-137 -6,-252 -5,-325l1 -48 47 -1c958,-31 7150,-18 12666,-6 4244,9 5707,17 6453,4 121,-2 219,-20 284,-66 61,-42 136,-114 137,-227 3,-258 -298,-314 -580,-317 -111,-2 -227,5 -334,11 -84,5 -162,10 -226,10 -420,0 -782,1 -1925,3 -5268,7 -15317,24 -16470,-6l-49 -1 0 -48 -5 -3556 0 -49 49 -1 211 -3 45 -1 6 44c33,271 24,898 15,1498 -10,639 -19,1248 22,1335 90,190 337,183 583,176 51,-2 102,-3 143,-3l0 0c734,0 823,-24 823,-434 0,-63 -2,-135 -4,-217 -3,-111 -6,-238 -6,-373 0,-86 -3,-216 -7,-374 -12,-553 -32,-1438 36,-1600l12 -29 32 -1 226 -7 53 -2 -2 52c-3,145 -13,1219 -8,2005 3,435 11,779 25,821 70,197 316,190 561,184 46,-2 92,-3 138,-3 861,0 860,-18 851,-686 -2,-93 -3,-197 -3,-292 0,-423 -1,-512 -1,-618 0,-441 0,-883 1,-1324l0 -48 48 -2 226 -9 51 -2 0 52c0,52 -1,180 -2,354 -6,749 -19,2361 31,2470 85,188 353,179 600,172 52,-2 104,-3 145,-3l0 0c715,0 802,-37 802,-435l0 0c0,-69 -2,-136 -4,-212 -2,-108 -6,-231 -6,-361 0,-174 2,-391 3,-610 4,-454 7,-912 -6,-1361l-1 -52 52 1c223,6 528,10 754,11l0 0c210,2 421,2 632,2l0 -597c-276,1 -535,2 -727,3 -157,1 -355,2 -372,2 -68,0 -143,-4 -218,-7 -340,-15 -676,-31 -703,321 -36,451 -23,947 -10,1442 11,411 22,821 5,1206l-2 46 -45 2z"/>
   <polygon class="fil1" points="11363,11720 11363,9067 11900,9067 11900,11720 "/>
   <polygon id="1" class="fil1" points="12410,11720 12410,9067 12930,9067 14022,10845 14022,9067 14518,9067 14518,11720 13981,11720 12907,9976 12907,11720 "/>
   <path id="2" class="fil1" d="M14944 10860l523 -52c31,175 94,303 190,385 96,82 225,123 387,123 172,0 301,-37 388,-109 87,-73 131,-159 131,-256 0,-63 -18,-116 -55,-161 -36,-43 -101,-82 -192,-114 -62,-22 -204,-60 -426,-116 -286,-71 -487,-159 -602,-263 -163,-147 -244,-325 -244,-536 0,-135 39,-262 115,-380 76,-118 186,-207 330,-269 144,-62 317,-93 520,-93 332,0 582,74 749,221 168,148 256,344 264,591l-537 18c-23,-137 -71,-235 -146,-295 -75,-60 -187,-90 -336,-90 -155,0 -276,32 -363,96 -56,41 -84,96 -84,166 0,63 26,116 79,161 68,57 231,116 491,178 260,61 452,125 576,191 125,66 222,155 293,270 70,114 105,255 105,422 0,152 -42,294 -126,427 -85,133 -204,232 -358,296 -155,65 -347,97 -578,97 -335,0 -592,-77 -772,-232 -180,-155 -286,-380 -322,-676z"/>
   <path id="3" class="fil1" d="M17445 10410c0,-271 40,-498 121,-682 60,-135 143,-257 247,-364 104,-108 219,-187 343,-240 165,-69 356,-105 572,-105 391,0 704,122 939,365 235,243 352,580 352,1013 0,429 -117,765 -350,1007 -232,243 -544,364 -934,364 -394,0 -708,-121 -941,-362 -233,-241 -349,-573 -349,-996zm551 -18c0,300 70,528 209,684 139,155 316,232 529,232 214,0 390,-77 527,-230 137,-155 206,-386 206,-694 0,-304 -67,-531 -201,-681 -133,-150 -310,-224 -532,-224 -221,0 -399,76 -534,227 -136,152 -204,380 -204,686z"/>
   <polygon id="4" class="fil1" points="20437,11720 20437,9067 22400,9067 22400,9516 20974,9516 20974,10105 22300,10105 22300,10553 20974,10553 20974,11271 22452,11271 22452,11720 "/>
   <polygon id="5" class="fil1" points="22922,11720 22922,9090 23459,9090 23459,11271 24789,11271 24789,11720 "/>
  </g>
 </g>
</svg>
